<svg xmlns="http://www.w3.org/2000/svg" xmlns:xlink="http://www.w3.org/1999/xlink" width="400" zoomAndPan="magnify" viewBox="0 0 300 37.5" height="50" preserveAspectRatio="xMidYMid meet" version="1.0"><defs><g/><clipPath id="4cffbcd688"><path d="M 6 0 L 295 0 L 295 37.007812 L 6 37.007812 Z M 6 0 " clip-rule="nonzero"/></clipPath><clipPath id="22279ac637"><rect x="0" width="27" y="0" height="32"/></clipPath><clipPath id="2d279ecb72"><path d="M 0.210938 1 L 20 1 L 20 23 L 0.210938 23 Z M 0.210938 1 " clip-rule="nonzero"/></clipPath><clipPath id="e3b2305d71"><rect x="0" width="21" y="0" height="32"/></clipPath><clipPath id="2d5499eddf"><path d="M 272 7 L 288.472656 7 L 288.472656 27 L 272 27 Z M 272 7 " clip-rule="nonzero"/></clipPath><clipPath id="8d99b8f4f4"><path d="M 9 5 L 16.472656 5 L 16.472656 16 L 9 16 Z M 9 5 " clip-rule="nonzero"/></clipPath><clipPath id="9153bdfd39"><rect x="0" width="17" y="0" height="20"/></clipPath><clipPath id="6ea53a463e"><rect x="0" width="289" y="0" height="38"/></clipPath></defs><g clip-path="url(#4cffbcd688)"><g transform="matrix(1, 0, 0, 1, 6, -0.000000000000001478)"><g clip-path="url(#6ea53a463e)"><g fill="#ffffff" fill-opacity="1"><g transform="translate(28.17353, 22.748954)"><g><path d="M 10.78125 0 L 9.71875 -3.46875 L 4.390625 -3.46875 L 3.328125 0 L 0 0 L 5.15625 -14.65625 L 8.9375 -14.65625 L 14.109375 0 Z M 8.984375 -6.078125 C 8.003906 -9.222656 7.453125 -11 7.328125 -11.40625 C 7.203125 -11.820312 7.113281 -12.148438 7.0625 -12.390625 C 6.84375 -11.535156 6.210938 -9.429688 5.171875 -6.078125 Z M 8.984375 -6.078125 "/></g></g></g><g fill="#ffffff" fill-opacity="1"><g transform="translate(41.46477, 22.748954)"><g><path d="M 13.640625 0 L 10.109375 0 L 6.71875 -5.515625 L 3.3125 0 L 0 0 L 4.84375 -7.53125 L 0.3125 -14.59375 L 3.71875 -14.59375 L 6.875 -9.34375 L 9.953125 -14.59375 L 13.296875 -14.59375 L 8.703125 -7.359375 Z M 13.640625 0 "/></g></g></g><g fill="#ffffff" fill-opacity="1"><g transform="translate(54.286701, 22.748954)"><g><path d="M 1.84375 0 L 1.84375 -14.59375 L 4.9375 -14.59375 L 4.9375 0 Z M 1.84375 0 "/></g></g></g><g fill="#ffffff" fill-opacity="1"><g transform="translate(60.238728, 22.748954)"><g><path d="M 8.015625 0 L 4.5 -11.453125 L 4.421875 -11.453125 C 4.546875 -9.117188 4.609375 -7.566406 4.609375 -6.796875 L 4.609375 0 L 1.84375 0 L 1.84375 -14.59375 L 6.046875 -14.59375 L 9.5 -3.4375 L 9.5625 -3.4375 L 13.234375 -14.59375 L 17.453125 -14.59375 L 17.453125 0 L 14.5625 0 L 14.5625 -6.90625 C 14.5625 -7.238281 14.566406 -7.613281 14.578125 -8.03125 C 14.585938 -8.457031 14.628906 -9.59375 14.703125 -11.4375 L 14.625 -11.4375 L 10.859375 0 Z M 8.015625 0 "/></g></g></g><g transform="matrix(1, 0, 0, 1, 0.000000000000000888, -0.000000000000001478)"><g clip-path="url(#22279ac637)"><g fill="#ffffff" fill-opacity="1"><g transform="translate(0.335306, 22.747495)"><g><path d="M 11.53125 0 L 6.484375 -16.484375 L 6.34375 -16.484375 C 6.53125 -13.128906 6.625 -10.890625 6.625 -9.765625 L 6.625 0 L 2.640625 0 L 2.640625 -21 L 8.703125 -21 L 13.671875 -4.9375 L 13.765625 -4.9375 L 19.03125 -21 L 25.09375 -21 L 25.09375 0 L 20.953125 0 L 20.953125 -9.9375 C 20.953125 -10.40625 20.957031 -10.945312 20.96875 -11.5625 C 20.976562 -12.175781 21.039062 -13.804688 21.15625 -16.453125 L 21.03125 -16.453125 L 15.609375 0 Z M 11.53125 0 "/></g></g></g></g></g><g fill="#ffffff" fill-opacity="1"><g transform="translate(104.552775, 22.748954)"><g><path d="M 1.84375 0 L 1.84375 -14.59375 L 4.9375 -14.59375 L 4.9375 0 Z M 1.84375 0 "/></g></g></g><g fill="#ffffff" fill-opacity="1"><g transform="translate(109.993543, 22.748954)"><g><path d="M 14.796875 0 L 10.859375 0 L 4.5 -11.046875 L 4.421875 -11.046875 C 4.546875 -9.097656 4.609375 -7.707031 4.609375 -6.875 L 4.609375 0 L 1.84375 0 L 1.84375 -14.59375 L 5.75 -14.59375 L 12.078125 -3.671875 L 12.15625 -3.671875 C 12.050781 -5.566406 12 -6.90625 12 -7.6875 L 12 -14.59375 L 14.796875 -14.59375 Z M 14.796875 0 "/></g></g></g><g fill="#ffffff" fill-opacity="1"><g transform="translate(125.289826, 22.748954)"><g><path d="M 13.953125 -7.4375 C 13.953125 -5.03125 13.265625 -3.1875 11.890625 -1.90625 C 10.523438 -0.632812 8.550781 0 5.96875 0 L 1.84375 0 L 1.84375 -14.59375 L 6.421875 -14.59375 C 8.804688 -14.59375 10.65625 -13.960938 11.96875 -12.703125 C 13.289062 -11.453125 13.953125 -9.695312 13.953125 -7.4375 Z M 10.734375 -7.359375 C 10.734375 -10.492188 9.347656 -12.0625 6.578125 -12.0625 L 4.9375 -12.0625 L 4.9375 -2.5625 L 6.265625 -2.5625 C 9.242188 -2.5625 10.734375 -4.160156 10.734375 -7.359375 Z M 10.734375 -7.359375 "/></g></g></g><g fill="#ffffff" fill-opacity="1"><g transform="translate(139.098295, 22.748954)"><g><path d="M 13.71875 -14.59375 L 13.71875 -5.15625 C 13.71875 -4.070312 13.476562 -3.125 13 -2.3125 C 12.519531 -1.5 11.820312 -0.875 10.90625 -0.4375 C 9.988281 -0.0078125 8.910156 0.203125 7.671875 0.203125 C 5.796875 0.203125 4.335938 -0.273438 3.296875 -1.234375 C 2.253906 -2.203125 1.734375 -3.519531 1.734375 -5.1875 L 1.734375 -14.59375 L 4.828125 -14.59375 L 4.828125 -5.65625 C 4.828125 -4.53125 5.050781 -3.703125 5.5 -3.171875 C 5.957031 -2.648438 6.707031 -2.390625 7.75 -2.390625 C 8.757812 -2.390625 9.492188 -2.65625 9.953125 -3.1875 C 10.410156 -3.71875 10.640625 -4.550781 10.640625 -5.6875 L 10.640625 -14.59375 Z M 13.71875 -14.59375 "/></g></g></g><g fill="#ffffff" fill-opacity="1"><g transform="translate(153.226295, 22.748954)"><g><path d="M 10.25 0 L 1.84375 0 L 1.84375 -14.59375 L 10.25 -14.59375 L 10.25 -12.0625 L 4.9375 -12.0625 L 4.9375 -8.859375 L 9.875 -8.859375 L 9.875 -6.328125 L 4.9375 -6.328125 L 4.9375 -2.5625 L 10.25 -2.5625 Z M 10.25 0 "/></g></g></g><g fill="#ffffff" fill-opacity="1"><g transform="translate(163.35018, 22.748954)"><g><path d="M 10.453125 -4.046875 C 10.453125 -2.734375 9.976562 -1.695312 9.03125 -0.9375 C 8.082031 -0.175781 6.765625 0.203125 5.078125 0.203125 C 3.515625 0.203125 2.132812 -0.0859375 0.9375 -0.671875 L 0.9375 -3.5625 C 1.925781 -3.113281 2.757812 -2.800781 3.4375 -2.625 C 4.125 -2.445312 4.75 -2.359375 5.3125 -2.359375 C 5.988281 -2.359375 6.507812 -2.488281 6.875 -2.75 C 7.238281 -3.007812 7.421875 -3.394531 7.421875 -3.90625 C 7.421875 -4.1875 7.335938 -4.4375 7.171875 -4.65625 C 7.015625 -4.882812 6.78125 -5.101562 6.46875 -5.3125 C 6.164062 -5.519531 5.535156 -5.847656 4.578125 -6.296875 C 3.691406 -6.722656 3.023438 -7.128906 2.578125 -7.515625 C 2.128906 -7.898438 1.769531 -8.347656 1.5 -8.859375 C 1.238281 -9.367188 1.109375 -9.96875 1.109375 -10.65625 C 1.109375 -11.945312 1.546875 -12.960938 2.421875 -13.703125 C 3.296875 -14.441406 4.503906 -14.8125 6.046875 -14.8125 C 6.804688 -14.8125 7.53125 -14.71875 8.21875 -14.53125 C 8.914062 -14.351562 9.640625 -14.101562 10.390625 -13.78125 L 9.390625 -11.375 C 8.609375 -11.695312 7.960938 -11.921875 7.453125 -12.046875 C 6.941406 -12.171875 6.441406 -12.234375 5.953125 -12.234375 C 5.367188 -12.234375 4.921875 -12.097656 4.609375 -11.828125 C 4.296875 -11.554688 4.140625 -11.195312 4.140625 -10.75 C 4.140625 -10.476562 4.203125 -10.238281 4.328125 -10.03125 C 4.453125 -9.832031 4.648438 -9.640625 4.921875 -9.453125 C 5.203125 -9.265625 5.859375 -8.921875 6.890625 -8.421875 C 8.253906 -7.773438 9.1875 -7.125 9.6875 -6.46875 C 10.195312 -5.8125 10.453125 -5.003906 10.453125 -4.046875 Z M 10.453125 -4.046875 "/></g></g></g><g fill="#ffffff" fill-opacity="1"><g transform="translate(173.284343, 22.748954)"><g><path d="M 4.9375 -7.734375 L 5.953125 -7.734375 C 6.898438 -7.734375 7.609375 -7.921875 8.078125 -8.296875 C 8.554688 -8.671875 8.796875 -9.21875 8.796875 -9.9375 C 8.796875 -10.664062 8.597656 -11.203125 8.203125 -11.546875 C 7.804688 -11.890625 7.1875 -12.0625 6.34375 -12.0625 L 4.9375 -12.0625 Z M 11.921875 -10.046875 C 11.921875 -8.472656 11.429688 -7.269531 10.453125 -6.4375 C 9.472656 -5.601562 8.078125 -5.1875 6.265625 -5.1875 L 4.9375 -5.1875 L 4.9375 0 L 1.84375 0 L 1.84375 -14.59375 L 6.5 -14.59375 C 8.269531 -14.59375 9.613281 -14.210938 10.53125 -13.453125 C 11.457031 -12.691406 11.921875 -11.554688 11.921875 -10.046875 Z M 11.921875 -10.046875 "/></g></g></g><g fill="#ffffff" fill-opacity="1"><g transform="translate(184.796188, 22.748954)"><g><path d="M 15.09375 -7.328125 C 15.09375 -4.898438 14.492188 -3.035156 13.296875 -1.734375 C 12.097656 -0.441406 10.378906 0.203125 8.140625 0.203125 C 5.898438 0.203125 4.179688 -0.441406 2.984375 -1.734375 C 1.785156 -3.035156 1.1875 -4.90625 1.1875 -7.34375 C 1.1875 -9.769531 1.785156 -11.625 2.984375 -12.90625 C 4.191406 -14.1875 5.914062 -14.828125 8.15625 -14.828125 C 10.40625 -14.828125 12.125 -14.179688 13.3125 -12.890625 C 14.5 -11.597656 15.09375 -9.742188 15.09375 -7.328125 Z M 4.4375 -7.328125 C 4.4375 -5.691406 4.742188 -4.457031 5.359375 -3.625 C 5.984375 -2.800781 6.910156 -2.390625 8.140625 -2.390625 C 10.609375 -2.390625 11.84375 -4.035156 11.84375 -7.328125 C 11.84375 -10.609375 10.613281 -12.25 8.15625 -12.25 C 6.925781 -12.25 6 -11.832031 5.375 -11 C 4.75 -10.175781 4.4375 -8.953125 4.4375 -7.328125 Z M 4.4375 -7.328125 "/></g></g></g><g fill="#ffffff" fill-opacity="1"><g transform="translate(199.742985, 22.748954)"><g><path d="M 1.84375 0 L 1.84375 -14.59375 L 4.9375 -14.59375 L 4.9375 -2.5625 L 10.859375 -2.5625 L 10.859375 0 Z M 1.84375 0 "/></g></g></g><g fill="#ffffff" fill-opacity="1"><g transform="translate(209.966723, 22.748954)"><g><path d="M 10.25 0 L 1.84375 0 L 1.84375 -14.59375 L 10.25 -14.59375 L 10.25 -12.0625 L 4.9375 -12.0625 L 4.9375 -8.859375 L 9.875 -8.859375 L 9.875 -6.328125 L 4.9375 -6.328125 L 4.9375 -2.5625 L 10.25 -2.5625 Z M 10.25 0 "/></g></g></g><g fill="#ffffff" fill-opacity="1"><g transform="translate(220.090607, 22.748954)"><g><path d="M 4.9375 -8.125 L 5.9375 -8.125 C 6.914062 -8.125 7.632812 -8.285156 8.09375 -8.609375 C 8.5625 -8.929688 8.796875 -9.441406 8.796875 -10.140625 C 8.796875 -10.835938 8.554688 -11.332031 8.078125 -11.625 C 7.609375 -11.914062 6.875 -12.0625 5.875 -12.0625 L 4.9375 -12.0625 Z M 4.9375 -5.609375 L 4.9375 0 L 1.84375 0 L 1.84375 -14.59375 L 6.09375 -14.59375 C 8.070312 -14.59375 9.535156 -14.234375 10.484375 -13.515625 C 11.441406 -12.796875 11.921875 -11.703125 11.921875 -10.234375 C 11.921875 -9.367188 11.679688 -8.601562 11.203125 -7.9375 C 10.734375 -7.269531 10.066406 -6.742188 9.203125 -6.359375 C 11.398438 -3.078125 12.832031 -0.957031 13.5 0 L 10.0625 0 L 6.578125 -5.609375 Z M 4.9375 -5.609375 "/></g></g></g><g fill="#ffffff" fill-opacity="1"><g transform="translate(232.261484, 22.748954)"><g><path d="M 1.84375 0 L 1.84375 -14.59375 L 4.9375 -14.59375 L 4.9375 0 Z M 1.84375 0 "/></g></g></g><g fill="#ffffff" fill-opacity="1"><g transform="translate(237.702252, 22.748954)"><g><path d="M 14.796875 0 L 10.859375 0 L 4.5 -11.046875 L 4.421875 -11.046875 C 4.546875 -9.097656 4.609375 -7.707031 4.609375 -6.875 L 4.609375 0 L 1.84375 0 L 1.84375 -14.59375 L 5.75 -14.59375 L 12.078125 -3.671875 L 12.15625 -3.671875 C 12.050781 -5.566406 12 -6.90625 12 -7.6875 L 12 -14.59375 L 14.796875 -14.59375 Z M 14.796875 0 "/></g></g></g><g fill="#ffffff" fill-opacity="1"><g transform="translate(252.998542, 22.748954)"><g><path d="M 7.375 -8.203125 L 13.171875 -8.203125 L 13.171875 -0.625 C 12.234375 -0.320312 11.347656 -0.109375 10.515625 0.015625 C 9.691406 0.140625 8.847656 0.203125 7.984375 0.203125 C 5.773438 0.203125 4.085938 -0.441406 2.921875 -1.734375 C 1.765625 -3.035156 1.1875 -4.898438 1.1875 -7.328125 C 1.1875 -9.679688 1.859375 -11.515625 3.203125 -12.828125 C 4.554688 -14.148438 6.425781 -14.8125 8.8125 -14.8125 C 10.3125 -14.8125 11.757812 -14.507812 13.15625 -13.90625 L 12.125 -11.4375 C 11.0625 -11.96875 9.953125 -12.234375 8.796875 -12.234375 C 7.460938 -12.234375 6.390625 -11.78125 5.578125 -10.875 C 4.773438 -9.976562 4.375 -8.773438 4.375 -7.265625 C 4.375 -5.679688 4.695312 -4.46875 5.34375 -3.625 C 6 -2.789062 6.941406 -2.375 8.171875 -2.375 C 8.816406 -2.375 9.472656 -2.441406 10.140625 -2.578125 L 10.140625 -5.625 L 7.375 -5.625 Z M 7.375 -8.203125 "/></g></g></g><g transform="matrix(1, 0, 0, 1, 86, -0.000000000000001478)"><g clip-path="url(#e3b2305d71)"><g clip-path="url(#2d279ecb72)"><g fill="#ffffff" fill-opacity="1"><g transform="translate(0.548363, 22.747495)"><g><path d="M 14.625 -21 L 19.125 -21 L 11.984375 0 L 7.125 0 L 0 -21 L 4.5 -21 L 8.453125 -8.5 C 8.671875 -7.769531 8.894531 -6.910156 9.125 -5.921875 C 9.363281 -4.941406 9.507812 -4.257812 9.5625 -3.875 C 9.664062 -4.757812 10.023438 -6.300781 10.640625 -8.5 Z M 14.625 -21 "/></g></g></g></g></g></g><g clip-path="url(#2d5499eddf)"><g transform="matrix(1, 0, 0, 1, 272, 7)"><g clip-path="url(#9153bdfd39)"><g fill="#ffffff" fill-opacity="1"><g transform="translate(0.177276, 15.639802)"><g><path d="M 1.265625 0 L 1.265625 -10.046875 L 3.390625 -10.046875 L 3.390625 0 Z M 1.265625 0 "/></g></g></g><g fill="#ffffff" fill-opacity="1"><g transform="translate(3.92194, 15.639802)"><g><path d="M 5.75 -10.046875 L 2 0 L 0.09375 0 L 3.84375 -10.046875 Z M 5.75 -10.046875 "/></g></g></g><g clip-path="url(#8d99b8f4f4)"><g fill="#ffffff" fill-opacity="1"><g transform="translate(8.821183, 15.639802)"><g><path d="M 7.203125 -2.796875 C 7.203125 -1.890625 6.875 -1.171875 6.21875 -0.640625 C 5.5625 -0.117188 4.648438 0.140625 3.484375 0.140625 C 2.421875 0.140625 1.472656 -0.0625 0.640625 -0.46875 L 0.640625 -2.453125 C 1.316406 -2.148438 1.890625 -1.9375 2.359375 -1.8125 C 2.835938 -1.6875 3.269531 -1.625 3.65625 -1.625 C 4.125 -1.625 4.484375 -1.710938 4.734375 -1.890625 C 4.984375 -2.066406 5.109375 -2.332031 5.109375 -2.6875 C 5.109375 -2.882812 5.050781 -3.054688 4.9375 -3.203125 C 4.832031 -3.359375 4.671875 -3.507812 4.453125 -3.65625 C 4.242188 -3.800781 3.8125 -4.03125 3.15625 -4.34375 C 2.539062 -4.625 2.078125 -4.894531 1.765625 -5.15625 C 1.460938 -5.425781 1.21875 -5.738281 1.03125 -6.09375 C 0.851562 -6.445312 0.765625 -6.859375 0.765625 -7.328125 C 0.765625 -8.222656 1.066406 -8.921875 1.671875 -9.421875 C 2.273438 -9.929688 3.109375 -10.1875 4.171875 -10.1875 C 4.691406 -10.1875 5.1875 -10.125 5.65625 -10 C 6.132812 -9.882812 6.632812 -9.710938 7.15625 -9.484375 L 6.46875 -7.828125 C 5.925781 -8.046875 5.476562 -8.195312 5.125 -8.28125 C 4.78125 -8.375 4.4375 -8.421875 4.09375 -8.421875 C 3.6875 -8.421875 3.375 -8.328125 3.15625 -8.140625 C 2.945312 -7.953125 2.84375 -7.707031 2.84375 -7.40625 C 2.84375 -7.21875 2.882812 -7.050781 2.96875 -6.90625 C 3.0625 -6.769531 3.203125 -6.632812 3.390625 -6.5 C 3.578125 -6.375 4.03125 -6.140625 4.75 -5.796875 C 5.6875 -5.347656 6.328125 -4.898438 6.671875 -4.453125 C 7.023438 -4.003906 7.203125 -3.453125 7.203125 -2.796875 Z M 7.203125 -2.796875 "/></g></g></g></g></g></g></g><g fill="#00aeef" fill-opacity="1"><g transform="translate(1.694699, 33.72587)"><g><path d="M 0.515625 -2.859375 L 0.515625 -3.78125 L 3.484375 -3.78125 L 3.484375 -2.859375 Z M 0.515625 -2.859375 "/></g></g></g><g fill="#00aeef" fill-opacity="1"><g transform="translate(5.220714, 33.72587)"><g/></g></g><g fill="#00aeef" fill-opacity="1"><g transform="translate(7.978839, 33.72587)"><g><path d="M 6.203125 -2.359375 C 6.203125 -1.578125 5.921875 -0.96875 5.359375 -0.53125 C 4.796875 -0.09375 4.03125 0.125 3.0625 0.125 C 2.007812 0.125 1.203125 -0.0078125 0.640625 -0.28125 L 0.640625 -1.28125 C 1.003906 -1.125 1.398438 -1 1.828125 -0.90625 C 2.253906 -0.820312 2.675781 -0.78125 3.09375 -0.78125 C 3.78125 -0.78125 4.296875 -0.910156 4.640625 -1.171875 C 4.992188 -1.429688 5.171875 -1.789062 5.171875 -2.25 C 5.171875 -2.5625 5.109375 -2.8125 4.984375 -3 C 4.859375 -3.195312 4.648438 -3.378906 4.359375 -3.546875 C 4.078125 -3.710938 3.640625 -3.898438 3.046875 -4.109375 C 2.222656 -4.410156 1.632812 -4.757812 1.28125 -5.15625 C 0.925781 -5.5625 0.75 -6.085938 0.75 -6.734375 C 0.75 -7.421875 1.003906 -7.960938 1.515625 -8.359375 C 2.035156 -8.765625 2.71875 -8.96875 3.5625 -8.96875 C 4.4375 -8.96875 5.242188 -8.804688 5.984375 -8.484375 L 5.65625 -7.59375 C 4.925781 -7.894531 4.21875 -8.046875 3.53125 -8.046875 C 2.988281 -8.046875 2.5625 -7.925781 2.25 -7.6875 C 1.945312 -7.457031 1.796875 -7.140625 1.796875 -6.734375 C 1.796875 -6.421875 1.851562 -6.164062 1.96875 -5.96875 C 2.082031 -5.78125 2.269531 -5.601562 2.53125 -5.4375 C 2.800781 -5.269531 3.210938 -5.085938 3.765625 -4.890625 C 4.691406 -4.554688 5.328125 -4.203125 5.671875 -3.828125 C 6.023438 -3.453125 6.203125 -2.960938 6.203125 -2.359375 Z M 6.203125 -2.359375 "/></g></g></g><g fill="#00aeef" fill-opacity="1"><g transform="translate(14.316417, 33.72587)"><g><path d="M 6.140625 0 L 1.21875 0 L 1.21875 -8.84375 L 6.140625 -8.84375 L 6.140625 -7.9375 L 2.25 -7.9375 L 2.25 -5.078125 L 5.90625 -5.078125 L 5.90625 -4.171875 L 2.25 -4.171875 L 2.25 -0.921875 L 6.140625 -0.921875 Z M 6.140625 0 "/></g></g></g><g fill="#00aeef" fill-opacity="1"><g transform="translate(20.744689, 33.72587)"><g/></g></g><g fill="#00aeef" fill-opacity="1"><g transform="translate(23.502815, 33.72587)"><g><path d="M 5.109375 -4.640625 L 8.109375 -4.640625 L 8.109375 -0.328125 C 7.640625 -0.179688 7.160156 -0.0703125 6.671875 0 C 6.191406 0.0820312 5.632812 0.125 5 0.125 C 3.664062 0.125 2.625 -0.269531 1.875 -1.0625 C 1.125 -1.863281 0.75 -2.984375 0.75 -4.421875 C 0.75 -5.335938 0.929688 -6.140625 1.296875 -6.828125 C 1.671875 -7.523438 2.203125 -8.054688 2.890625 -8.421875 C 3.585938 -8.785156 4.40625 -8.96875 5.34375 -8.96875 C 6.289062 -8.96875 7.171875 -8.796875 7.984375 -8.453125 L 7.578125 -7.546875 C 6.785156 -7.878906 6.019531 -8.046875 5.28125 -8.046875 C 4.195312 -8.046875 3.351562 -7.722656 2.75 -7.078125 C 2.144531 -6.441406 1.84375 -5.554688 1.84375 -4.421875 C 1.84375 -3.222656 2.132812 -2.316406 2.71875 -1.703125 C 3.300781 -1.085938 4.15625 -0.78125 5.28125 -0.78125 C 5.894531 -0.78125 6.492188 -0.851562 7.078125 -1 L 7.078125 -3.71875 L 5.109375 -3.71875 Z M 5.109375 -4.640625 "/></g></g></g><g fill="#00aeef" fill-opacity="1"><g transform="translate(32.05941, 33.72587)"><g><path d="M 8.890625 -4.4375 C 8.890625 -3.019531 8.53125 -1.90625 7.8125 -1.09375 C 7.101562 -0.28125 6.109375 0.125 4.828125 0.125 C 3.523438 0.125 2.519531 -0.269531 1.8125 -1.0625 C 1.101562 -1.863281 0.75 -2.992188 0.75 -4.453125 C 0.75 -5.890625 1.101562 -7.003906 1.8125 -7.796875 C 2.53125 -8.585938 3.539062 -8.984375 4.84375 -8.984375 C 6.113281 -8.984375 7.101562 -8.578125 7.8125 -7.765625 C 8.53125 -6.960938 8.890625 -5.851562 8.890625 -4.4375 Z M 1.84375 -4.4375 C 1.84375 -3.238281 2.097656 -2.328125 2.609375 -1.703125 C 3.117188 -1.085938 3.859375 -0.78125 4.828125 -0.78125 C 5.804688 -0.78125 6.546875 -1.085938 7.046875 -1.703125 C 7.546875 -2.316406 7.796875 -3.226562 7.796875 -4.4375 C 7.796875 -5.625 7.546875 -6.523438 7.046875 -7.140625 C 6.554688 -7.753906 5.820312 -8.0625 4.84375 -8.0625 C 3.863281 -8.0625 3.117188 -7.75 2.609375 -7.125 C 2.097656 -6.507812 1.84375 -5.613281 1.84375 -4.4375 Z M 1.84375 -4.4375 "/></g></g></g><g fill="#00aeef" fill-opacity="1"><g transform="translate(41.244828, 33.72587)"><g><path d="M 8.28125 -4.5 C 8.28125 -3.039062 7.882812 -1.925781 7.09375 -1.15625 C 6.300781 -0.382812 5.160156 0 3.671875 0 L 1.21875 0 L 1.21875 -8.84375 L 3.921875 -8.84375 C 5.296875 -8.84375 6.363281 -8.460938 7.125 -7.703125 C 7.894531 -6.941406 8.28125 -5.875 8.28125 -4.5 Z M 7.1875 -4.46875 C 7.1875 -5.625 6.894531 -6.492188 6.3125 -7.078125 C 5.738281 -7.660156 4.878906 -7.953125 3.734375 -7.953125 L 2.25 -7.953125 L 2.25 -0.890625 L 3.5 -0.890625 C 4.726562 -0.890625 5.648438 -1.191406 6.265625 -1.796875 C 6.878906 -2.398438 7.1875 -3.289062 7.1875 -4.46875 Z M 7.1875 -4.46875 "/></g></g></g><g fill="#00aeef" fill-opacity="1"><g transform="translate(49.813516, 33.72587)"><g><path d="M 3.9375 0 L 2.90625 0 L 2.90625 -7.9375 L 0.109375 -7.9375 L 0.109375 -8.84375 L 6.734375 -8.84375 L 6.734375 -7.9375 L 3.9375 -7.9375 Z M 3.9375 0 "/></g></g></g><g fill="#00aeef" fill-opacity="1"><g transform="translate(56.20551, 33.72587)"><g/></g></g><g fill="#00aeef" fill-opacity="1"><g transform="translate(58.963636, 33.72587)"><g><path d="M 7.890625 -8.84375 L 7.890625 -3.125 C 7.890625 -2.113281 7.582031 -1.316406 6.96875 -0.734375 C 6.363281 -0.160156 5.53125 0.125 4.46875 0.125 C 3.40625 0.125 2.582031 -0.164062 2 -0.75 C 1.414062 -1.332031 1.125 -2.128906 1.125 -3.140625 L 1.125 -8.84375 L 2.15625 -8.84375 L 2.15625 -3.078125 C 2.15625 -2.335938 2.351562 -1.769531 2.75 -1.375 C 3.15625 -0.976562 3.75 -0.78125 4.53125 -0.78125 C 5.28125 -0.78125 5.851562 -0.976562 6.25 -1.375 C 6.65625 -1.769531 6.859375 -2.335938 6.859375 -3.078125 L 6.859375 -8.84375 Z M 7.890625 -8.84375 "/></g></g></g><g fill="#00aeef" fill-opacity="1"><g transform="translate(67.520231, 33.72587)"><g><path d="M 8.28125 -4.5 C 8.28125 -3.039062 7.882812 -1.925781 7.09375 -1.15625 C 6.300781 -0.382812 5.160156 0 3.671875 0 L 1.21875 0 L 1.21875 -8.84375 L 3.921875 -8.84375 C 5.296875 -8.84375 6.363281 -8.460938 7.125 -7.703125 C 7.894531 -6.941406 8.28125 -5.875 8.28125 -4.5 Z M 7.1875 -4.46875 C 7.1875 -5.625 6.894531 -6.492188 6.3125 -7.078125 C 5.738281 -7.660156 4.878906 -7.953125 3.734375 -7.953125 L 2.25 -7.953125 L 2.25 -0.890625 L 3.5 -0.890625 C 4.726562 -0.890625 5.648438 -1.191406 6.265625 -1.796875 C 6.878906 -2.398438 7.1875 -3.289062 7.1875 -4.46875 Z M 7.1875 -4.46875 "/></g></g></g><g fill="#00aeef" fill-opacity="1"><g transform="translate(76.088919, 33.72587)"><g/></g></g><g fill="#00aeef" fill-opacity="1"><g transform="translate(78.847045, 33.72587)"><g><path d="M 1.21875 0 L 1.21875 -8.84375 L 2.25 -8.84375 L 2.25 0 Z M 1.21875 0 "/></g></g></g><g fill="#00aeef" fill-opacity="1"><g transform="translate(81.84098, 33.72587)"><g><path d="M 5.109375 -4.640625 L 8.109375 -4.640625 L 8.109375 -0.328125 C 7.640625 -0.179688 7.160156 -0.0703125 6.671875 0 C 6.191406 0.0820312 5.632812 0.125 5 0.125 C 3.664062 0.125 2.625 -0.269531 1.875 -1.0625 C 1.125 -1.863281 0.75 -2.984375 0.75 -4.421875 C 0.75 -5.335938 0.929688 -6.140625 1.296875 -6.828125 C 1.671875 -7.523438 2.203125 -8.054688 2.890625 -8.421875 C 3.585938 -8.785156 4.40625 -8.96875 5.34375 -8.96875 C 6.289062 -8.96875 7.171875 -8.796875 7.984375 -8.453125 L 7.578125 -7.546875 C 6.785156 -7.878906 6.019531 -8.046875 5.28125 -8.046875 C 4.195312 -8.046875 3.351562 -7.722656 2.75 -7.078125 C 2.144531 -6.441406 1.84375 -5.554688 1.84375 -4.421875 C 1.84375 -3.222656 2.132812 -2.316406 2.71875 -1.703125 C 3.300781 -1.085938 4.15625 -0.78125 5.28125 -0.78125 C 5.894531 -0.78125 6.492188 -0.851562 7.078125 -1 L 7.078125 -3.71875 L 5.109375 -3.71875 Z M 5.109375 -4.640625 "/></g></g></g><g fill="#00aeef" fill-opacity="1"><g transform="translate(90.397575, 33.72587)"><g><path d="M 6.140625 0 L 1.21875 0 L 1.21875 -8.84375 L 6.140625 -8.84375 L 6.140625 -7.9375 L 2.25 -7.9375 L 2.25 -5.078125 L 5.90625 -5.078125 L 5.90625 -4.171875 L 2.25 -4.171875 L 2.25 -0.921875 L 6.140625 -0.921875 Z M 6.140625 0 "/></g></g></g><g fill="#00aeef" fill-opacity="1"><g transform="translate(96.825847, 33.72587)"><g><path d="M 8.125 0 L 6.953125 0 L 2.125 -7.421875 L 2.0625 -7.421875 C 2.132812 -6.546875 2.171875 -5.75 2.171875 -5.03125 L 2.171875 0 L 1.21875 0 L 1.21875 -8.84375 L 2.375 -8.84375 L 7.203125 -1.453125 L 7.25 -1.453125 C 7.238281 -1.554688 7.21875 -1.90625 7.1875 -2.5 C 7.164062 -3.09375 7.15625 -3.515625 7.15625 -3.765625 L 7.15625 -8.84375 L 8.125 -8.84375 Z M 8.125 0 "/></g></g></g><g fill="#00aeef" fill-opacity="1"><g transform="translate(105.7029, 33.72587)"><g><path d="M 1.96875 -2.4375 L 1.34375 -2.4375 L 1.03125 -8.84375 L 2.28125 -8.84375 Z M 0.921875 -0.640625 C 0.921875 -1.191406 1.160156 -1.46875 1.640625 -1.46875 C 1.878906 -1.46875 2.0625 -1.394531 2.1875 -1.25 C 2.3125 -1.113281 2.375 -0.910156 2.375 -0.640625 C 2.375 -0.378906 2.304688 -0.175781 2.171875 -0.03125 C 2.046875 0.101562 1.867188 0.171875 1.640625 0.171875 C 1.429688 0.171875 1.257812 0.109375 1.125 -0.015625 C 0.988281 -0.140625 0.921875 -0.347656 0.921875 -0.640625 Z M 0.921875 -0.640625 "/></g></g></g></g></g></g></svg>